<?xml version="1.0" encoding="UTF-8" standalone="no"?>
<svg
   width="512"
   height="512"
   viewBox="0 0 512 512"
   fill="none"
   version="1.1"
   id="svg7"
   sodipodi:docname="typesync.svg"
   inkscape:version="1.4.2 (ebf0e940d0, 2025-05-08)"
   xmlns:inkscape="http://www.inkscape.org/namespaces/inkscape"
   xmlns:sodipodi="http://sodipodi.sourceforge.net/DTD/sodipodi-0.dtd"
   xmlns="http://www.w3.org/2000/svg"
   xmlns:svg="http://www.w3.org/2000/svg">
  <sodipodi:namedview
     id="namedview7"
     pagecolor="#ffffff"
     bordercolor="#000000"
     borderopacity="0.25"
     inkscape:showpageshadow="2"
     inkscape:pageopacity="0.0"
     inkscape:pagecheckerboard="0"
     inkscape:deskcolor="#d1d1d1"
     inkscape:zoom="2.1484375"
     inkscape:cx="256"
     inkscape:cy="256"
     inkscape:window-width="2327"
     inkscape:window-height="1309"
     inkscape:window-x="0"
     inkscape:window-y="0"
     inkscape:window-maximized="1"
     inkscape:current-layer="svg7" />
  <defs
     id="defs3">
    <!-- Lighting Gradient for Top Surface -->
    <linearGradient
       id="surfaceGradient"
       x1="55"
       y1="45"
       x2="55"
       y2="447"
       gradientUnits="userSpaceOnUse">
      <stop
         offset="0%"
         stop-color="#3A3A3A"
         id="stop1" />
      <stop
         offset="100%"
         stop-color="#222222"
         id="stop2" />
    </linearGradient>
    <!-- Subtle Drop Shadow for 3D Depth -->
    <filter
       id="shadow"
       x="-0.019776119"
       y="-0.019776119"
       width="1.0395522"
       height="1.0495025">
      <feGaussianBlur
         in="SourceAlpha"
         stdDeviation="3"
         id="feGaussianBlur2" />
      <feOffset
         dx="0"
         dy="4"
         result="offsetblur"
         id="feOffset2" />
      <feComponentTransfer
         id="feComponentTransfer2">
        <feFuncA
           type="linear"
           slope="0.5"
           id="feFuncA2" />
      </feComponentTransfer>
      <feMerge
         id="feMerge3">
        <feMergeNode
           id="feMergeNode2" />
        <feMergeNode
           in="SourceGraphic"
           id="feMergeNode3" />
      </feMerge>
    </filter>
    <!-- Texture/Noise Effect -->
    <filter
       id="noise"
       x="0"
       y="0"
       width="1"
       height="1">
      <feTurbulence
         type="fractalNoise"
         baseFrequency="0.8"
         numOctaves="3"
         stitchTiles="stitch"
         id="feTurbulence3" />
      <feColorMatrix
         type="matrix"
         values="1 0 0 0 0 0 1 0 0 0 0 0 1 0 0 0 0 0 0.05 0"
         id="feColorMatrix3" />
      <feComposite
         operator="in"
         in2="SourceGraphic"
         id="feComposite3" />
    </filter>
  </defs>
  <!-- Lower Layer (Shadow/Depth) -->
  <path
     d="M75 85C75 73.95 83.95 65 95 65H457C468.05 65 477 73.95 477 85V447C477 458.05 468.05 467 457 467H220C208.95 467 200 458.05 200 447V255C200 243.95 191.05 235 180 235H95C83.95 235 75 226.05 75 215V85Z"
     fill="#111111"
     id="path3" />
  <!-- Upper Layer Group -->
  <g
     filter="url(#shadow)"
     id="g6"
     transform="matrix(0.84,0,0,0.89473684,72.552727,31.85)">
    <!-- Main Surface with Gradient -->
    <path
       d="M 55,65 C 55,53.95 63.95,45 75,45 h 362 c 11.05,0 20,8.95 20,20 v 362 c 0,11.05 -8.95,20 -20,20 H 200 c -11.05,0 -20,-8.95 -20,-20 V 235 c 0,-11.05 -8.95,-20 -20,-20 H 75 c -11.05,0 -20,-8.95 -20,-20 z"
       fill="url(#surfaceGradient)"
       id="path4"
       style="fill:url(#surfaceGradient)" />
    <!-- Texture Overlay -->
    <path
       d="M 55,65 C 55,53.95 63.95,45 75,45 h 362 c 11.05,0 20,8.95 20,20 v 362 c 0,11.05 -8.95,20 -20,20 H 200 c -11.05,0 -20,-8.95 -20,-20 V 235 c 0,-11.05 -8.95,-20 -20,-20 H 75 c -11.05,0 -20,-8.95 -20,-20 z"
       filter="url(#noise)"
       fill="#ffffff"
       opacity="0.3"
       id="path5" />
    <!-- Subtle Edge Highlight (Inner stroke effect) -->
    <path
       d="M 55,65 C 55,53.95 63.95,45 75,45 h 362 c 11.05,0 20,8.95 20,20 v 362 c 0,11.05 -8.95,20 -20,20 H 200 c -11.05,0 -20,-8.95 -20,-20 V 235 c 0,-11.05 -8.95,-20 -20,-20 H 75 c -11.05,0 -20,-8.95 -20,-20 z"
       stroke="#ffffff"
       stroke-width="1.5"
       stroke-opacity="0.1"
       id="path6" />
  </g>
  <!-- Centered Content Group (Text + Arrow) -->
  <g
     transform="translate(265.77455,142.10181)"
     id="g7">
    <!-- Text: Enter -->
    <text
       x="-120"
       y="10"
       fill="#ffffff"
       fill-opacity="0.9"
       style="font-weight:bold;font-size:64px;font-family:Arial, sans-serif"
       dominant-baseline="middle"
       id="text6">Enter</text>
    <!-- Icon: Return Arrow -->
    <path
       d="M 133.59375,-40 V 0 h -60 l 20,-20 -10,-10 -40,40 40,40 10,-10 -20,-20 h 80 v -60 z"
       fill="#ffffff"
       fill-opacity="0.9"
       id="path7" />
  </g>
</svg>
